<svg height="382pt" viewBox="0 -13 382.29333 382" width="382pt" xmlns="http://www.w3.org/2000/svg"><path d="m324.265625 198.242188h-4.867187c.925781-3.261719 1.453124-20.339844 1.453124-23.894532 0-20.734375-16.8125-37.546875-37.542968-37.546875h-16.773438c3.164063-4.699219 5.039063-10.289062 5.039063-16.316406 0-16.558594-13.847657-29.972656-30.933594-29.972656h-22.6875c-53.613281-11.992188-57.738281-59.949219-57.738281-59.949219-35.589844 17.246094-45.550782 45.425781-48.355469 59.949219l-1.140625 21.117187c0 9.617188 3.621094 18.394532 9.59375 25.175782h-21.324219c-20.734375 0-37.546875 16.808593-37.546875 37.546874 0 3.550782.527344 20.632813 1.453125 23.890626h-4.867187c-28.28125 0-51.199219 29.753906-51.199219 58.027343 0 28.277344 22.917969 58.027344 51.199219 58.027344h17.066406v17.066406c0 9.425781 7.640625 17.066407 17.066406 17.066407 9.425782 0 17.066406-7.640626 17.066406-17.066407v-17.066406h215.039063c28.28125 0 51.199219-29.75 51.199219-58.027344 0-28.273437-22.917969-58.027343-51.199219-58.027343zm0 0" fill="#ff80c3"/><path d="m324.265625 198.242188v-6.828126h-4.867187v6.828126l6.566406 1.867187c.289062-1.046875.398437-1.832031.53125-2.796875.417968-3.234375.683594-7.976562.882812-12.527344.195313-4.546875.296875-8.664062.300782-10.4375-.007813-24.511718-19.867188-44.367187-44.375-44.371094h-16.773438v6.824219l5.660156 3.816407c3.875-5.738282 6.210938-12.679688 6.207032-20.132813.003906-10.207031-4.292969-19.488281-11.132813-26.101563-6.835937-6.628906-16.28125-10.703124-26.625-10.699218h-22.6875v6.824218l1.488281-6.660156c-12.472656-2.800781-21.789062-7.585937-28.929687-13.148437-10.6875-8.335938-16.574219-18.578125-19.808594-26.824219-1.613281-4.113281-2.546875-7.699219-3.074219-10.207031-.257812-1.25-.421875-2.230469-.511718-2.871094l-.085938-.691406-.015625-.140625-.796875.078125.796875-.066407v-.011718l-.796875.078125.800781-.066407c-.195312-2.230468-1.484375-4.246093-3.429687-5.351562-1.945313-1.101562-4.339844-1.183594-6.351563-.207031-18.890625 9.140625-31.296875 21.421875-39.183593 33.371093-7.90625 11.953126-11.363282 23.5-12.894532 31.425782l-.113281.925781-1.140625 21.121094-.011719.367187c-.003906 11.347656 4.296875 21.753906 11.296875 29.683594l5.125-4.511719v-6.824219h-21.328125c-24.507812.003907-44.371093 19.859376-44.375 44.371094 0 2.015625.136719 7.136719.386719 12.386719.128906 2.613281.28125 5.226563.472656 7.476563.097656 1.125.199219 2.160156.324219 3.101562.132813.960938.242187 1.75.53125 2.796875l6.566406-1.867187v-6.828126h-4.867187c-16.625.023438-31.191406 8.699219-41.421875 20.832032-10.253907 12.183594-16.5703128 28.035156-16.605469 44.023437.0351562 15.988281 6.351562 31.835938 16.605469 44.019531 10.230469 12.132813 24.800781 20.8125 41.421875 20.832032h10.238281v10.242187c.003906 13.199219 10.695313 23.886719 23.894531 23.890625 13.199219-.003906 23.890625-10.691406 23.894532-23.890625v-10.242187h208.210937c16.621094-.019532 31.191406-8.699219 41.421875-20.832032 10.253906-12.183593 16.570312-28.03125 16.605469-44.019531-.035157-15.988281-6.351563-31.839843-16.605469-44.023437-10.230469-12.132813-24.800781-20.808594-41.421875-20.832032v13.65625c11.660156-.023437 22.691406 6.175782 30.988281 15.988282 8.277344 9.757812 13.417969 22.921875 13.386719 35.210937.035156 12.289063-5.109375 25.453125-13.386719 35.210938-8.296875 9.8125-19.332031 16.011719-30.988281 15.988281h-215.039063c-1.796874 0-3.554687.730469-4.828124 2-1.269532 1.269531-2 3.027344-2 4.828125v17.066406c-.007813 5.652344-4.585938 10.226563-10.238282 10.238281-5.65625-.011718-10.230468-4.585937-10.238281-10.238281v-17.066406c0-1.796875-.730469-3.554687-2-4.828125-1.269531-1.269531-3.03125-2-4.828125-2h-17.066406c-11.660156.019531-22.691406-6.175781-30.992188-15.988281-8.277344-9.761719-13.414062-22.921875-13.382812-35.210938-.035156-12.289062 5.105468-25.453125 13.382812-35.214843 8.300782-9.8125 19.332032-16.007813 30.992188-15.988282h4.867187c2.144531 0 4.15625-1 5.445313-2.710937 1.292968-1.710938 1.707031-3.917969 1.121094-5.980469l-.894532.253906.910156-.199218-.015624-.054688-.894532.253906.910156-.199218c-.070312-.261719-.296874-1.976563-.445312-3.945313-.484375-6.027344-.765625-15.871094-.761719-18.136719.003907-8.503906 3.425781-16.140625 9-21.722656 5.578125-5.570312 13.214844-8.996094 21.71875-8.996094h21.328125c2.675782 0 5.121094-1.578125 6.222656-4.019531 1.101563-2.4375.667969-5.3125-1.101562-7.320313-4.945312-5.628906-7.882812-12.777343-7.890625-20.660156h-6.824219l6.816406.367188 1.140626-21.121094-6.816407-.367188 6.699219 1.292969c1.273438-6.597656 4.203125-16.398437 10.875-26.476562 6.691406-10.082031 17.0625-20.515625 33.753906-28.621094l-2.976562-6.144531-6.800782.585937c.070313.609375 1.191407 13.492188 9.644532 28.289063 4.230468 7.382812 10.339844 15.234375 19.058594 22.03125 8.710937 6.804687 20.015624 12.507812 34.347656 15.703125l1.488281.164062h22.6875c6.742187.003907 12.761719 2.636719 17.121094 6.855469 4.355469 4.234375 6.980469 9.941406 6.984375 16.292969-.003906 4.605469-1.414063 8.839843-3.875 12.503906-1.410156 2.097656-1.550782 4.792969-.367188 7.023437 1.1875 2.230469 3.503906 3.621094 6.027344 3.621094h16.777344c8.5 0 16.136718 3.425782 21.71875 8.996094 5.570312 5.582031 8.996094 13.21875 9 21.722656 0 1.535156-.128906 6.730469-.371094 11.726563-.121094 2.507812-.273438 4.996093-.441406 6.976562-.085938.988281-.175782 1.851563-.257813 2.484375l-.109375.730469-.03125.160156.914063.199219-.898438-.253906-.015625.054687.914063.199219-.898438-.253906c-.585937 2.0625-.171875 4.269531 1.121094 5.980468 1.292969 1.710938 3.304687 2.714844 5.449219 2.714844h4.863281zm0 0" fill="#54596e"/><path d="m138.238281 122.578125c-10.679687-10.679687-27.996093-10.679687-38.683593 0-10.683594 10.683594-10.683594 28.003906 0 38.6875l38.683593 38.683594 38.6875-38.683594c10.679688-10.683594 10.679688-28.003906 0-38.6875-10.6875-10.679687-28.003906-10.679687-38.6875 0zm0 0" fill="#fff"/><path d="m138.238281 122.578125 4.828125-4.828125c-6.65625-6.660156-15.445312-10.015625-24.167968-10.007812-8.722657-.011719-17.515626 3.347656-24.171876 10.007812-6.664062 6.660156-10.019531 15.445312-10.007812 24.171875-.011719 8.722656 3.347656 17.511719 10.007812 24.167969l38.6875 38.683594c2.664063 2.667968 6.988282 2.667968 9.652344 0l38.6875-38.679688c6.660156-6.660156 10.015625-15.449219 10.007813-24.171875.007812-8.726563-3.347657-17.511719-10.007813-24.167969-6.660156-6.664062-15.453125-10.019531-24.175781-10.011718-8.722656-.007813-17.511719 3.347656-24.167969 10.011718l4.828125 4.824219 4.828125-4.828125-4.828125 4.828125 4.828125 4.828125c4.023438-4.019531 9.238282-6.003906 14.515625-6.011719 5.277344.007813 10.492188 1.992188 14.519531 6.011719 4.019532 4.023438 6 9.238281 6.007813 14.515625-.007813 5.277344-1.988281 10.492187-6.007813 14.515625l-33.863281 33.855469-33.859375-33.855469c-4.019531-4.027344-6-9.238281-6.011718-14.515625.011718-5.277344 1.992187-10.492187 6.011718-14.515625 4.027344-4.019531 9.242188-6.003906 14.519532-6.011719 5.277343.011719 10.488281 1.992188 14.511718 6.011719 1.273438 1.273438 3.03125 2 4.828125 2 1.800781 0 3.558594-.726562 4.828125-2zm0 0" fill="#54596e"/><path d="m358.398438 92.429688c-4.710938-4.714844-12.351563-4.714844-17.066407 0-4.710937 4.710937-4.710937 12.351562 0 17.066406l17.066407 17.066406 17.066406-17.066406c4.714844-4.714844 4.714844-12.355469 0-17.066406-4.710938-4.714844-12.351563-4.714844-17.066406 0zm0 0" fill="#ff80c3"/><path d="m221.867188 3.683594c-4.714844-4.714844-12.351563-4.714844-17.066407 0-4.714843 4.710937-4.714843 12.351562 0 17.066406l17.066407 17.066406 17.066406-17.066406c4.714844-4.714844 4.714844-12.355469 0-17.066406-4.714844-4.714844-12.351563-4.714844-17.066406 0zm0 0" fill="#ff80c3"/><path d="m254.292969 122.578125c-10.679688-10.679687-28-10.679687-38.6875 0-10.679688 10.683594-10.679688 28.003906 0 38.6875l38.6875 38.683594 38.6875-38.683594c10.679687-10.683594 10.679687-28.003906 0-38.6875-10.6875-10.679687-28.007813-10.679687-38.6875 0zm0 0" fill="#fff"/><g fill="#54596e"><path d="m254.292969 122.578125 4.828125-4.828125c-6.65625-6.660156-15.445313-10.015625-24.167969-10.007812-8.726563-.011719-17.515625 3.347656-24.171875 10.007812-6.664062 6.660156-10.019531 15.445312-10.011719 24.171875-.007812 8.722656 3.347657 17.511719 10.007813 24.167969l38.691406 38.683594c2.664062 2.667968 6.984375 2.667968 9.652344 0l38.683594-38.679688c6.664062-6.660156 10.019531-15.449219 10.011718-24.171875.007813-8.726563-3.347656-17.511719-10.011718-24.167969-6.660157-6.664062-15.449219-10.019531-24.171876-10.011718-8.722656-.007813-17.511718 3.347656-24.167968 10.011718l4.828125 4.824219 4.828125-4.828125-4.828125 4.828125 4.828125 4.828125c4.023437-4.019531 9.234375-6.003906 14.515625-6.011719 5.273437.007813 10.488281 1.992188 14.519531 6.011719 4.015625 4.023438 6 9.238281 6.007812 14.515625-.007812 5.277344-1.992187 10.492187-6.011718 14.515625l-33.859375 33.855469-33.859375-33.855469c-4.019532-4.027344-6.003906-9.238281-6.011719-14.515625.007813-5.277344 1.992187-10.492187 6.011719-14.515625 4.027344-4.019531 9.238281-6.003906 14.519531-6.011719 5.277344.011719 10.488281 1.992188 14.511719 6.011719 1.273437 1.273438 3.03125 2 4.828125 2s3.558593-.726562 4.828125-2zm0 0"/><path d="m197.972656 239.203125c0 18.847656 15.28125 34.132813 34.132813 34.132813 18.855469 0 34.132812-15.285157 34.132812-34.132813zm0 0"/><path d="m197.972656 239.203125h-6.824218c0 22.621094 18.332031 40.953125 40.957031 40.957031 22.628906 0 40.957031-18.335937 40.960937-40.957031 0-1.796875-.726562-3.554687-2-4.828125-1.269531-1.269531-3.027344-2-4.824218-2h-68.265626c-1.796874 0-3.558593.730469-4.828124 2-1.273438 1.269531-2 3.027344-2 4.828125h6.824218v6.824219h68.265625v-6.824219h-6.824219c-.003906 7.558594-3.046874 14.34375-8 19.304687-4.960937 4.953126-11.746093 7.996094-19.308593 8-7.5625-.003906-14.34375-3.046874-19.308594-8-4.953125-4.960937-7.992187-11.746093-7.996094-19.304687h-6.828125v6.824219zm0 0"/></g><path d="m245.761719 259.683594c0-3.773438-6.113281-6.828125-13.65625-6.828125-7.539063 0-13.652344 3.054687-13.652344 6.828125 0 3.769531 6.113281 6.824218 13.652344 6.824218 7.542969 0 13.65625-3.054687 13.65625-6.824218zm0 0" fill="#ff927d"/><path d="m232.105469 232.375h-68.265625c-3.769532 0-6.828125 3.058594-6.828125 6.828125s3.058593 6.824219 6.828125 6.824219h68.265625c3.769531 0 6.828125-3.054688 6.828125-6.824219s-3.058594-6.828125-6.828125-6.828125" fill="#54596e"/></svg>